<svg version="1.1" id="Layer_1" xmlns="http://www.w3.org/2000/svg" xmlns:xlink="http://www.w3.org/1999/xlink" x="0px" y="0px"
	 width="20" viewBox="0 0 691 685" enable-background="new 0 0 691 685" xml:space="preserve">
<path fill="#13072E" opacity="1.000000" stroke="none" 
	d="
M692.000000,253.000000 
	C692.000000,396.166656 691.982849,538.833313 692.094116,681.499939 
	C692.096985,685.249390 691.249207,686.095215 687.499939,686.093445 
	C460.166687,685.989258 232.833374,685.989197 5.500110,686.093445 
	C1.751019,686.095154 0.904794,685.249451 0.906531,681.500000 
	C1.010879,456.166748 1.010883,230.833420 0.906561,5.500151 
	C0.904826,1.751168 1.750421,0.904813 5.499935,0.906532 
	C232.833221,1.010785 460.166534,1.010778 687.499817,0.906577 
	C691.248718,0.904858 692.101013,1.749636 692.095276,5.499995 
	C691.970459,87.833191 692.000000,170.166611 692.000000,253.000000 
z"/>
<path fill="#EDA8F8" opacity="1.000000" stroke="none" 
	d="
M349.037903,14.238069 
	C351.362427,14.207734 353.352356,14.369851 355.342255,14.370077 
	C462.787872,14.382294 570.233582,14.413954 677.679016,14.271346 
	C682.441162,14.265026 683.762207,15.350946 683.755310,20.249268 
	C683.604065,128.027847 683.640259,235.806671 683.636108,343.585449 
	C683.636047,345.083649 683.579102,346.581848 683.327393,348.492249 
	C682.919189,349.059418 682.732422,349.214386 682.185608,349.418945 
	C679.340149,348.702820 677.586182,346.924530 675.817078,345.155334 
	C568.164368,237.500061 460.503418,129.853119 352.887482,22.161110 
	C350.772522,20.044670 347.779510,18.191160 349.037903,14.238069 
z"/>
<path fill="#14082F" opacity="1.000000" stroke="none" 
	d="
M348.953064,14.120815 
	C348.972870,16.020374 350.620178,16.711483 351.606140,17.697701 
	C461.687744,127.806129 571.791077,237.892853 681.895325,347.978607 
	C682.130127,348.213348 682.396912,348.416199 683.016296,348.773010 
	C682.454712,351.263184 680.551147,351.980682 678.216125,352.085663 
	C675.720215,352.197815 673.224670,352.212219 670.728271,352.212311 
	C567.531677,352.216248 464.335083,352.212311 361.138489,352.225769 
	C357.301392,352.226288 353.479980,352.262482 349.326324,350.955780 
	C348.833862,351.040771 348.612152,351.023895 348.501587,351.012024 
	C347.818115,351.011200 347.370880,350.779541 347.025299,349.906586 
	C347.001251,349.507965 346.966034,349.463287 346.952209,349.438416 
	C344.646301,334.257843 345.872192,319.003784 345.850983,303.801788 
	C345.721558,210.913834 345.773590,118.025597 345.829376,25.137497 
	C345.831451,21.719711 344.996552,18.119225 347.381958,14.530803 
	C347.974518,14.134772 348.254059,14.127625 348.953064,14.120815 
z"/>
<path fill="#EEA9F9" opacity="1.000000" stroke="none" 
	d="
M349.175842,351.091125 
	C350.395447,348.673187 352.779480,349.896484 354.726044,349.895233 
	C462.040619,349.826416 569.355225,349.834900 676.669800,349.827850 
	C678.666809,349.827698 680.663757,349.734161 683.022339,349.298096 
	C683.383850,348.912018 683.187317,348.943573 683.146667,348.924011 
	C683.282654,350.713837 683.613464,352.523193 683.613831,354.332611 
	C683.638489,462.824127 683.635986,571.315674 683.635986,679.807190 
	C683.635986,681.096252 683.635986,682.385315 683.635986,685.127014 
	C571.614502,573.149963 460.566162,462.145721 349.175842,351.091125 
z"/>
<path fill="#EEA8F9" opacity="1.000000" stroke="none" 
	d="
M347.255890,14.243037 
	C347.832214,16.123262 348.089172,18.104586 348.089539,20.085955 
	C348.108856,127.886444 348.108459,235.686935 348.091217,343.487427 
	C348.090942,345.302704 347.859680,347.117889 347.337280,349.173340 
	C346.697418,347.346558 344.868866,346.484406 343.628693,345.243256 
	C235.149994,236.675583 126.643486,128.135712 18.122122,19.610668 
	C16.727119,18.215618 15.117109,17.035566 13.607452,15.755166 
	C13.812680,15.284829 14.017908,14.814492 14.223136,14.344155 
	C125.087685,14.344155 235.952225,14.344155 347.255890,14.243037 
z"/>
<path fill="#EFA9FA" opacity="1.000000" stroke="none" 
	d="
M346.551208,349.647614 
	C347.379608,349.782043 347.757935,350.056091 348.263672,350.665131 
	C348.296753,352.988007 348.120239,354.975891 348.119995,356.963776 
	C348.106689,464.085297 348.108246,571.206787 348.108246,678.328308 
	C348.108246,680.154663 348.108215,681.981079 348.108215,682.896362 
	C237.226028,572.169800 125.983711,461.083557 14.531001,349.787262 
	C124.789955,349.787262 235.445557,349.787262 346.551208,349.647614 
z"/>
</svg>